<svg id="Calque_1" data-name="Calque 1" xmlns="http://www.w3.org/2000/svg" viewBox="0 0 512 448.12"><path d="M458.33,32.11C400.54-16.51,311.25-9.21,256,47.12c-55.29-56.33-144.58-63.73-202.37-15C-21.6,95.45-10.6,198.7,43,253.42L218.37,432.21a52.49,52.49,0,0,0,75.19.1L468.93,253.52C522.42,198.8,533.62,95.55,458.33,32.11Zm-23.59,187.6L259.36,398.5c-2.4,2.4-4.4,2.4-6.8,0L77.19,219.71c-36.5-37.22-43.89-107.66,7.3-150.78C123.38,36.22,183.37,41.12,221,79.44l35,35.72,35-35.72c37.79-38.52,97.78-43.22,136.48-10.61,51.09,43.12,43.49,114,7.3,150.88Z"/></svg>